<svg xmlns="http://www.w3.org/2000/svg" viewBox="0 0 64 64">
  <rect width="64" height="64" rx="12" fill="#ED1C24"/>
  <!-- Body/Neck -->
  <path d="M 24 30 L 24 16 Q 24 10 30 10 L 34 10 Q 40 10 40 16 L 40 30" fill="#fdfbf7"/>
  <!-- Ears -->
  <path d="M 24 16 L 20 6 L 28 14" fill="#fdfbf7"/>
  <path d="M 40 16 L 44 6 L 36 14" fill="#fdfbf7"/>
  <path d="M 25 14 L 22 8 L 27 13" fill="#e8c3b8"/>
  <path d="M 39 14 L 42 8 L 37 13" fill="#e8c3b8"/>
  <!-- Snout -->
  <ellipse cx="32" cy="22" rx="7" ry="5" fill="#e6d5c3"/>
  <!-- Nose/Mouth -->
  <path d="M 32 20 L 32 24 M 29 23 Q 32 26 35 23" stroke="#4a3b32" stroke-width="1.5" stroke-linecap="round" fill="none"/>
  <!-- Eyes -->
  <circle cx="27" cy="16" r="2" fill="#4a3b32"/>
  <circle cx="37" cy="16" r="2" fill="#4a3b32"/>
  <!-- Medical Outfit (Coat) -->
  <path d="M 16 64 L 16 42 Q 16 32 24 30 L 40 30 Q 48 32 48 42 L 48 64 Z" fill="#ffffff"/>
  <path d="M 32 30 L 32 64" stroke="#e2e8f0" stroke-width="2"/>
  <!-- Stethoscope -->
  <path d="M 20 30 Q 20 48 32 48 Q 44 48 44 30" stroke="#1e293b" stroke-width="2.5" fill="none"/>
  <path d="M 32 48 L 32 54" stroke="#1e293b" stroke-width="2.5" fill="none"/>
  <circle cx="32" cy="56" r="4" fill="#94a3b8" stroke="#1e293b" stroke-width="2"/>
  <!-- Head mirror / Reflector -->
  <circle cx="32" cy="8" r="4" fill="#cbd5e1" stroke="#1e293b" stroke-width="1.5"/>
  <circle cx="32" cy="8" r="1.5" fill="#f8fafc"/>
  <!-- Headband -->
  <path d="M 26 8 L 28 8 M 36 8 L 38 8" stroke="#1e293b" stroke-width="1.5"/>
</svg>